<svg width="348" height="48" viewBox="0 0 348 48" fill="none" xmlns="http://www.w3.org/2000/svg">
<path fill-rule="evenodd" clip-rule="evenodd" d="M12.0572 1.75C14.2479 1.74999 15.9686 1.74998 17.312 1.93059C18.6886 2.11568 19.7809 2.50272 20.6391 3.36091C21.4973 4.21911 21.8843 5.31137 22.0694 6.68802C22.25 8.03144 22.25 9.75214 22.25 11.9428V12.0572C22.25 14.2479 22.25 15.9686 22.0694 17.312C21.8843 18.6886 21.4973 19.7809 20.6391 20.6391C19.7809 21.4973 18.6886 21.8843 17.312 22.0694C15.9686 22.25 14.2479 22.25 12.0572 22.25H11.9428C9.7521 22.25 8.03144 22.25 6.68802 22.0694C5.31137 21.8843 4.21911 21.4973 3.36091 20.6391C2.50272 19.7809 2.11568 18.6886 1.93059 17.312C1.74998 15.9686 1.74999 14.2479 1.75 12.0572V11.9428C1.74999 9.75211 1.74998 8.03144 1.93059 6.68802C2.11568 5.31137 2.50272 4.21911 3.36091 3.36091C4.21911 2.50272 5.31137 2.11568 6.68802 1.93059C8.03144 1.74998 9.75212 1.74999 11.9428 1.75H12.0572ZM16.8775 8.02038C17.1425 8.50493 16.9645 9.11257 16.48 9.37756C15.1086 10.1275 13.8208 11.6975 12.8374 13.2032C12.3581 13.9372 11.9735 14.6207 11.709 15.1204C11.577 15.3697 11.4756 15.5721 11.4079 15.7105L11.3096 15.9159C11.1551 16.2536 10.8261 16.4782 10.4553 16.4987C10.0844 16.5191 9.73267 16.3323 9.54198 16.0135C9.23126 15.494 8.73753 15.0198 8.27997 14.6581C8.05764 14.4823 7.85752 14.3437 7.71471 14.2502L7.50442 14.1187C7.02493 13.8449 6.85797 13.2344 7.13152 12.7548C7.40513 12.275 8.01585 12.1079 8.49559 12.3815L8.81063 12.5772C8.99282 12.6965 9.2427 12.8697 9.52038 13.0892C9.73258 13.257 9.96984 13.4587 10.2094 13.6911C10.4662 13.2297 10.7872 12.685 11.1629 12.1096C12.1796 10.5529 13.6917 8.62286 15.5204 7.62282C16.0049 7.35782 16.6125 7.53582 16.8775 8.02038Z" fill="#F3541C"/>
<path d="M45.824 6.848V18H44.368V12.944H38.688V18H37.232V6.848H38.688V11.744H44.368V6.848H45.824ZM49.0621 7.808C48.7848 7.808 48.5501 7.712 48.3581 7.52C48.1661 7.328 48.0701 7.09333 48.0701 6.816C48.0701 6.53867 48.1661 6.304 48.3581 6.112C48.5501 5.92 48.7848 5.824 49.0621 5.824C49.3288 5.824 49.5528 5.92 49.7341 6.112C49.9261 6.304 50.0221 6.53867 50.0221 6.816C50.0221 7.09333 49.9261 7.328 49.7341 7.52C49.5528 7.712 49.3288 7.808 49.0621 7.808ZM49.7661 9.232V18H48.3101V9.232H49.7661ZM53.7036 10.848C53.9916 10.3467 54.4183 9.93067 54.9836 9.6C55.5596 9.25867 56.2263 9.088 56.9836 9.088C57.7623 9.088 58.4663 9.27467 59.0956 9.648C59.7356 10.0213 60.237 10.5493 60.5996 11.232C60.9623 11.904 61.1436 12.688 61.1436 13.584C61.1436 14.4693 60.9623 15.2587 60.5996 15.952C60.237 16.6453 59.7356 17.184 59.0956 17.568C58.4663 17.952 57.7623 18.144 56.9836 18.144C56.237 18.144 55.5756 17.9787 54.9996 17.648C54.4343 17.3067 54.0023 16.8853 53.7036 16.384V22.16H52.2476V9.232H53.7036V10.848ZM59.6556 13.584C59.6556 12.9227 59.5223 12.3467 59.2556 11.856C58.989 11.3653 58.6263 10.992 58.1676 10.736C57.7196 10.48 57.2236 10.352 56.6796 10.352C56.1463 10.352 55.6503 10.4853 55.1916 10.752C54.7436 11.008 54.381 11.3867 54.1036 11.888C53.837 12.3787 53.7036 12.9493 53.7036 13.6C53.7036 14.2613 53.837 14.8427 54.1036 15.344C54.381 15.8347 54.7436 16.2133 55.1916 16.48C55.6503 16.736 56.1463 16.864 56.6796 16.864C57.2236 16.864 57.7196 16.736 58.1676 16.48C58.6263 16.2133 58.989 15.8347 59.2556 15.344C59.5223 14.8427 59.6556 14.256 59.6556 13.584ZM66.1641 18.144C65.4921 18.144 64.8895 18.032 64.3561 17.808C63.8228 17.5733 63.4015 17.2533 63.0921 16.848C62.7828 16.432 62.6121 15.9573 62.5801 15.424H64.0841C64.1268 15.8613 64.3295 16.2187 64.6921 16.496C65.0655 16.7733 65.5508 16.912 66.1481 16.912C66.7028 16.912 67.1401 16.7893 67.4601 16.544C67.7801 16.2987 67.9401 15.9893 67.9401 15.616C67.9401 15.232 67.7695 14.9493 67.4281 14.768C67.0868 14.576 66.5588 14.3893 65.8441 14.208C65.1935 14.0373 64.6601 13.8667 64.2441 13.696C63.8388 13.5147 63.4868 13.2533 63.1881 12.912C62.9001 12.56 62.7561 12.1013 62.7561 11.536C62.7561 11.088 62.8895 10.6773 63.1561 10.304C63.4228 9.93067 63.8015 9.63733 64.2921 9.424C64.7828 9.2 65.3428 9.088 65.9721 9.088C66.9428 9.088 67.7268 9.33333 68.3241 9.824C68.9215 10.3147 69.2415 10.9867 69.2841 11.84H67.8281C67.7961 11.3813 67.6095 11.0133 67.2681 10.736C66.9375 10.4587 66.4895 10.32 65.9241 10.32C65.4015 10.32 64.9855 10.432 64.6761 10.656C64.3668 10.88 64.2121 11.1733 64.2121 11.536C64.2121 11.824 64.3028 12.064 64.4841 12.256C64.6761 12.4373 64.9108 12.5867 65.1881 12.704C65.4761 12.8107 65.8708 12.9333 66.3721 13.072C67.0015 13.2427 67.5135 13.4133 67.9081 13.584C68.3028 13.744 68.6388 13.9893 68.9161 14.32C69.2041 14.6507 69.3535 15.0827 69.3641 15.616C69.3641 16.096 69.2308 16.528 68.9641 16.912C68.6975 17.296 68.3188 17.6 67.8281 17.824C67.3481 18.0373 66.7935 18.144 66.1641 18.144ZM73.1955 10.432V15.6C73.1955 16.0267 73.2862 16.3307 73.4675 16.512C73.6488 16.6827 73.9635 16.768 74.4115 16.768H75.4835V18H74.1715C73.3608 18 72.7528 17.8133 72.3475 17.44C71.9422 17.0667 71.7395 16.4533 71.7395 15.6V10.432H70.6035V9.232H71.7395V7.024H73.1955V9.232H75.4835V10.432H73.1955ZM85.2476 13.28C85.2476 13.5573 85.2316 13.8507 85.1996 14.16H78.1916C78.245 15.024 78.5383 15.7013 79.0716 16.192C79.6156 16.672 80.2716 16.912 81.0396 16.912C81.669 16.912 82.1916 16.768 82.6076 16.48C83.0343 16.1813 83.333 15.7867 83.5036 15.296H85.0716C84.837 16.1387 84.3676 16.8267 83.6636 17.36C82.9596 17.8827 82.085 18.144 81.0396 18.144C80.2076 18.144 79.461 17.9573 78.7996 17.584C78.149 17.2107 77.637 16.6827 77.2636 16C76.8903 15.3067 76.7036 14.5067 76.7036 13.6C76.7036 12.6933 76.885 11.8987 77.2476 11.216C77.6103 10.5333 78.117 10.0107 78.7676 9.648C79.429 9.27467 80.1863 9.088 81.0396 9.088C81.8716 9.088 82.6076 9.26933 83.2476 9.632C83.8876 9.99467 84.3783 10.496 84.7196 11.136C85.0716 11.7653 85.2476 12.48 85.2476 13.28ZM83.7436 12.976C83.7436 12.4213 83.621 11.9467 83.3756 11.552C83.1303 11.1467 82.7943 10.8427 82.3676 10.64C81.9516 10.4267 81.4876 10.32 80.9756 10.32C80.2396 10.32 79.6103 10.5547 79.0876 11.024C78.5756 11.4933 78.2823 12.144 78.2076 12.976H83.7436ZM88.6255 10.656C88.8815 10.1547 89.2442 9.76533 89.7135 9.488C90.1935 9.21067 90.7748 9.072 91.4575 9.072V10.576H91.0735C89.4415 10.576 88.6255 11.4613 88.6255 13.232V18H87.1695V9.232H88.6255V10.656ZM98.1559 7.808C97.8785 7.808 97.6439 7.712 97.4519 7.52C97.2599 7.328 97.1639 7.09333 97.1639 6.816C97.1639 6.53867 97.2599 6.304 97.4519 6.112C97.6439 5.92 97.8785 5.824 98.1559 5.824C98.4225 5.824 98.6465 5.92 98.8279 6.112C99.0199 6.304 99.1159 6.53867 99.1159 6.816C99.1159 7.09333 99.0199 7.328 98.8279 7.52C98.6465 7.712 98.4225 7.808 98.1559 7.808ZM98.8599 9.232V18H97.4039V9.232H98.8599ZM102.797 10.848C103.085 10.3467 103.512 9.93067 104.077 9.6C104.653 9.25867 105.32 9.088 106.077 9.088C106.856 9.088 107.56 9.27467 108.189 9.648C108.829 10.0213 109.331 10.5493 109.693 11.232C110.056 11.904 110.237 12.688 110.237 13.584C110.237 14.4693 110.056 15.2587 109.693 15.952C109.331 16.6453 108.829 17.184 108.189 17.568C107.56 17.952 106.856 18.144 106.077 18.144C105.331 18.144 104.669 17.9787 104.093 17.648C103.528 17.3067 103.096 16.8853 102.797 16.384V22.16H101.341V9.232H102.797V10.848ZM108.749 13.584C108.749 12.9227 108.616 12.3467 108.349 11.856C108.083 11.3653 107.72 10.992 107.261 10.736C106.813 10.48 106.317 10.352 105.773 10.352C105.24 10.352 104.744 10.4853 104.285 10.752C103.837 11.008 103.475 11.3867 103.197 11.888C102.931 12.3787 102.797 12.9493 102.797 13.6C102.797 14.2613 102.931 14.8427 103.197 15.344C103.475 15.8347 103.837 16.2133 104.285 16.48C104.744 16.736 105.24 16.864 105.773 16.864C106.317 16.864 106.813 16.736 107.261 16.48C107.72 16.2133 108.083 15.8347 108.349 15.344C108.616 14.8427 108.749 14.256 108.749 13.584ZM115.258 18.144C114.586 18.144 113.983 18.032 113.45 17.808C112.917 17.5733 112.495 17.2533 112.186 16.848C111.877 16.432 111.706 15.9573 111.674 15.424H113.178C113.221 15.8613 113.423 16.2187 113.786 16.496C114.159 16.7733 114.645 16.912 115.242 16.912C115.797 16.912 116.234 16.7893 116.554 16.544C116.874 16.2987 117.034 15.9893 117.034 15.616C117.034 15.232 116.863 14.9493 116.522 14.768C116.181 14.576 115.653 14.3893 114.938 14.208C114.287 14.0373 113.754 13.8667 113.338 13.696C112.933 13.5147 112.581 13.2533 112.282 12.912C111.994 12.56 111.85 12.1013 111.85 11.536C111.85 11.088 111.983 10.6773 112.25 10.304C112.517 9.93067 112.895 9.63733 113.386 9.424C113.877 9.2 114.437 9.088 115.066 9.088C116.037 9.088 116.821 9.33333 117.418 9.824C118.015 10.3147 118.335 10.9867 118.378 11.84H116.922C116.89 11.3813 116.703 11.0133 116.362 10.736C116.031 10.4587 115.583 10.32 115.018 10.32C114.495 10.32 114.079 10.432 113.77 10.656C113.461 10.88 113.306 11.1733 113.306 11.536C113.306 11.824 113.397 12.064 113.578 12.256C113.77 12.4373 114.005 12.5867 114.282 12.704C114.57 12.8107 114.965 12.9333 115.466 13.072C116.095 13.2427 116.607 13.4133 117.002 13.584C117.397 13.744 117.733 13.9893 118.01 14.32C118.298 14.6507 118.447 15.0827 118.458 15.616C118.458 16.096 118.325 16.528 118.058 16.912C117.791 17.296 117.413 17.6 116.922 17.824C116.442 18.0373 115.887 18.144 115.258 18.144ZM128.289 9.232V18H126.833V16.704C126.556 17.152 126.167 17.504 125.665 17.76C125.175 18.0053 124.631 18.128 124.033 18.128C123.351 18.128 122.737 17.9893 122.193 17.712C121.649 17.424 121.217 16.9973 120.897 16.432C120.588 15.8667 120.433 15.1787 120.433 14.368V9.232H121.873V14.176C121.873 15.04 122.092 15.7067 122.529 16.176C122.967 16.6347 123.564 16.864 124.321 16.864C125.1 16.864 125.713 16.624 126.161 16.144C126.609 15.664 126.833 14.9653 126.833 14.048V9.232H128.289ZM141.292 9.072C141.974 9.072 142.582 9.216 143.116 9.504C143.649 9.78133 144.07 10.2027 144.38 10.768C144.689 11.3333 144.844 12.0213 144.844 12.832V18H143.404V13.04C143.404 12.1653 143.185 11.4987 142.748 11.04C142.321 10.5707 141.74 10.336 141.004 10.336C140.246 10.336 139.644 10.5813 139.196 11.072C138.748 11.552 138.524 12.2507 138.524 13.168V18H137.084V13.04C137.084 12.1653 136.865 11.4987 136.428 11.04C136.001 10.5707 135.42 10.336 134.684 10.336C133.926 10.336 133.324 10.5813 132.876 11.072C132.428 11.552 132.204 12.2507 132.204 13.168V18H130.748V9.232H132.204V10.496C132.492 10.0373 132.876 9.68533 133.356 9.44C133.846 9.19467 134.385 9.072 134.972 9.072C135.708 9.072 136.358 9.23733 136.924 9.568C137.489 9.89867 137.91 10.384 138.188 11.024C138.433 10.4053 138.838 9.92533 139.404 9.584C139.969 9.24267 140.598 9.072 141.292 9.072ZM153.274 10.432V15.6C153.274 16.0267 153.364 16.3307 153.546 16.512C153.727 16.6827 154.042 16.768 154.49 16.768H155.562V18H154.25C153.439 18 152.831 17.8133 152.426 17.44C152.02 17.0667 151.818 16.4533 151.818 15.6V10.432H150.682V9.232H151.818V7.024H153.274V9.232H155.562V10.432H153.274ZM156.782 13.584C156.782 12.688 156.963 11.904 157.326 11.232C157.688 10.5493 158.184 10.0213 158.814 9.648C159.454 9.27467 160.163 9.088 160.942 9.088C161.71 9.088 162.376 9.25333 162.942 9.584C163.507 9.91467 163.928 10.3307 164.206 10.832V9.232H165.678V18H164.206V16.368C163.918 16.88 163.486 17.3067 162.91 17.648C162.344 17.9787 161.683 18.144 160.926 18.144C160.147 18.144 159.443 17.952 158.814 17.568C158.184 17.184 157.688 16.6453 157.326 15.952C156.963 15.2587 156.782 14.4693 156.782 13.584ZM164.206 13.6C164.206 12.9387 164.072 12.3627 163.806 11.872C163.539 11.3813 163.176 11.008 162.718 10.752C162.27 10.4853 161.774 10.352 161.23 10.352C160.686 10.352 160.19 10.48 159.742 10.736C159.294 10.992 158.936 11.3653 158.67 11.856C158.403 12.3467 158.27 12.9227 158.27 13.584C158.27 14.256 158.403 14.8427 158.67 15.344C158.936 15.8347 159.294 16.2133 159.742 16.48C160.19 16.736 160.686 16.864 161.23 16.864C161.774 16.864 162.27 16.736 162.718 16.48C163.176 16.2133 163.539 15.8347 163.806 15.344C164.072 14.8427 164.206 14.2613 164.206 13.6ZM169.914 10.432V15.6C169.914 16.0267 170.005 16.3307 170.186 16.512C170.368 16.6827 170.682 16.768 171.13 16.768H172.202V18H170.89C170.08 18 169.472 17.8133 169.066 17.44C168.661 17.0667 168.458 16.4533 168.458 15.6V10.432H167.322V9.232H168.458V7.024H169.914V9.232H172.202V10.432H169.914ZM175.742 10.432V15.6C175.742 16.0267 175.833 16.3307 176.014 16.512C176.196 16.6827 176.51 16.768 176.958 16.768H178.03V18H176.718C175.908 18 175.3 17.8133 174.894 17.44C174.489 17.0667 174.286 16.4533 174.286 15.6V10.432H173.15V9.232H174.286V7.024H175.742V9.232H178.03V10.432H175.742ZM183.619 18.144C182.797 18.144 182.051 17.9573 181.379 17.584C180.717 17.2107 180.195 16.6827 179.811 16C179.437 15.3067 179.251 14.5067 179.251 13.6C179.251 12.704 179.443 11.9147 179.827 11.232C180.221 10.5387 180.755 10.0107 181.427 9.648C182.099 9.27467 182.851 9.088 183.683 9.088C184.515 9.088 185.267 9.27467 185.939 9.648C186.611 10.0107 187.139 10.5333 187.523 11.216C187.917 11.8987 188.115 12.6933 188.115 13.6C188.115 14.5067 187.912 15.3067 187.507 16C187.112 16.6827 186.573 17.2107 185.891 17.584C185.208 17.9573 184.451 18.144 183.619 18.144ZM183.619 16.864C184.141 16.864 184.632 16.7413 185.091 16.496C185.549 16.2507 185.917 15.8827 186.195 15.392C186.483 14.9013 186.627 14.304 186.627 13.6C186.627 12.896 186.488 12.2987 186.211 11.808C185.933 11.3173 185.571 10.9547 185.123 10.72C184.675 10.4747 184.189 10.352 183.667 10.352C183.133 10.352 182.643 10.4747 182.195 10.72C181.757 10.9547 181.405 11.3173 181.139 11.808C180.872 12.2987 180.739 12.896 180.739 13.6C180.739 14.3147 180.867 14.9173 181.123 15.408C181.389 15.8987 181.741 16.2667 182.179 16.512C182.616 16.7467 183.096 16.864 183.619 16.864ZM193.853 18.144C193.032 18.144 192.285 17.9573 191.613 17.584C190.952 17.2107 190.429 16.6827 190.045 16C189.672 15.3067 189.485 14.5067 189.485 13.6C189.485 12.704 189.677 11.9147 190.061 11.232C190.456 10.5387 190.989 10.0107 191.661 9.648C192.333 9.27467 193.085 9.088 193.917 9.088C194.749 9.088 195.501 9.27467 196.173 9.648C196.845 10.0107 197.373 10.5333 197.757 11.216C198.152 11.8987 198.349 12.6933 198.349 13.6C198.349 14.5067 198.146 15.3067 197.741 16C197.346 16.6827 196.808 17.2107 196.125 17.584C195.442 17.9573 194.685 18.144 193.853 18.144ZM193.853 16.864C194.376 16.864 194.866 16.7413 195.325 16.496C195.784 16.2507 196.152 15.8827 196.429 15.392C196.717 14.9013 196.861 14.304 196.861 13.6C196.861 12.896 196.722 12.2987 196.445 11.808C196.168 11.3173 195.805 10.9547 195.357 10.72C194.909 10.4747 194.424 10.352 193.901 10.352C193.368 10.352 192.877 10.4747 192.429 10.72C191.992 10.9547 191.64 11.3173 191.373 11.808C191.106 12.2987 190.973 12.896 190.973 13.6C190.973 14.3147 191.101 14.9173 191.357 15.408C191.624 15.8987 191.976 16.2667 192.413 16.512C192.85 16.7467 193.33 16.864 193.853 16.864ZM208.263 13.28C208.263 13.5573 208.247 13.8507 208.215 14.16H201.207C201.261 15.024 201.554 15.7013 202.087 16.192C202.631 16.672 203.287 16.912 204.055 16.912C204.685 16.912 205.207 16.768 205.623 16.48C206.05 16.1813 206.349 15.7867 206.519 15.296H208.087C207.853 16.1387 207.383 16.8267 206.679 17.36C205.975 17.8827 205.101 18.144 204.055 18.144C203.223 18.144 202.477 17.9573 201.815 17.584C201.165 17.2107 200.653 16.6827 200.279 16C199.906 15.3067 199.719 14.5067 199.719 13.6C199.719 12.6933 199.901 11.8987 200.263 11.216C200.626 10.5333 201.133 10.0107 201.783 9.648C202.445 9.27467 203.202 9.088 204.055 9.088C204.887 9.088 205.623 9.26933 206.263 9.632C206.903 9.99467 207.394 10.496 207.735 11.136C208.087 11.7653 208.263 12.48 208.263 13.28ZM206.759 12.976C206.759 12.4213 206.637 11.9467 206.391 11.552C206.146 11.1467 205.81 10.8427 205.383 10.64C204.967 10.4267 204.503 10.32 203.991 10.32C203.255 10.32 202.626 10.5547 202.103 11.024C201.591 11.4933 201.298 12.144 201.223 12.976H206.759ZM209.641 13.584C209.641 12.688 209.822 11.904 210.185 11.232C210.548 10.5493 211.044 10.0213 211.673 9.648C212.313 9.27467 213.028 9.088 213.817 9.088C214.5 9.088 215.134 9.248 215.721 9.568C216.308 9.87733 216.756 10.288 217.065 10.8V6.16H218.537V18H217.065V16.352C216.777 16.8747 216.35 17.3067 215.785 17.648C215.22 17.9787 214.558 18.144 213.801 18.144C213.022 18.144 212.313 17.952 211.673 17.568C211.044 17.184 210.548 16.6453 210.185 15.952C209.822 15.2587 209.641 14.4693 209.641 13.584ZM217.065 13.6C217.065 12.9387 216.932 12.3627 216.665 11.872C216.398 11.3813 216.036 11.008 215.577 10.752C215.129 10.4853 214.633 10.352 214.089 10.352C213.545 10.352 213.049 10.48 212.601 10.736C212.153 10.992 211.796 11.3653 211.529 11.856C211.262 12.3467 211.129 12.9227 211.129 13.584C211.129 14.256 211.262 14.8427 211.529 15.344C211.796 15.8347 212.153 16.2133 212.601 16.48C213.049 16.736 213.545 16.864 214.089 16.864C214.633 16.864 215.129 16.736 215.577 16.48C216.036 16.2133 216.398 15.8347 216.665 15.344C216.932 14.8427 217.065 14.2613 217.065 13.6ZM226.719 10.864C227.018 10.3413 227.455 9.91467 228.031 9.584C228.607 9.25333 229.263 9.088 229.999 9.088C230.789 9.088 231.498 9.27467 232.127 9.648C232.757 10.0213 233.253 10.5493 233.615 11.232C233.978 11.904 234.159 12.688 234.159 13.584C234.159 14.4693 233.978 15.2587 233.615 15.952C233.253 16.6453 232.751 17.184 232.111 17.568C231.482 17.952 230.778 18.144 229.999 18.144C229.242 18.144 228.575 17.9787 227.999 17.648C227.434 17.3173 227.007 16.896 226.719 16.384V18H225.263V6.16H226.719V10.864ZM232.671 13.584C232.671 12.9227 232.538 12.3467 232.271 11.856C232.005 11.3653 231.642 10.992 231.183 10.736C230.735 10.48 230.239 10.352 229.695 10.352C229.162 10.352 228.666 10.4853 228.207 10.752C227.759 11.008 227.397 11.3867 227.119 11.888C226.853 12.3787 226.719 12.9493 226.719 13.6C226.719 14.2613 226.853 14.8427 227.119 15.344C227.397 15.8347 227.759 16.2133 228.207 16.48C228.666 16.736 229.162 16.864 229.695 16.864C230.239 16.864 230.735 16.736 231.183 16.48C231.642 16.2133 232.005 15.8347 232.271 15.344C232.538 14.8427 232.671 14.256 232.671 13.584ZM237.532 10.656C237.788 10.1547 238.15 9.76533 238.62 9.488C239.1 9.21067 239.681 9.072 240.364 9.072V10.576H239.98C238.348 10.576 237.532 11.4613 237.532 13.232V18H236.076V9.232H237.532V10.656ZM249.821 9.232V18H248.365V16.704C248.087 17.152 247.698 17.504 247.197 17.76C246.706 18.0053 246.162 18.128 245.565 18.128C244.882 18.128 244.269 17.9893 243.725 17.712C243.181 17.424 242.749 16.9973 242.429 16.432C242.119 15.8667 241.965 15.1787 241.965 14.368V9.232H243.405V14.176C243.405 15.04 243.623 15.7067 244.061 16.176C244.498 16.6347 245.095 16.864 245.853 16.864C246.631 16.864 247.245 16.624 247.693 16.144C248.141 15.664 248.365 14.9653 248.365 14.048V9.232H249.821ZM256.551 9.072C257.618 9.072 258.482 9.39733 259.143 10.048C259.804 10.688 260.135 11.616 260.135 12.832V18H258.695V13.04C258.695 12.1653 258.476 11.4987 258.039 11.04C257.602 10.5707 257.004 10.336 256.247 10.336C255.479 10.336 254.866 10.576 254.407 11.056C253.959 11.536 253.735 12.2347 253.735 13.152V18H252.279V9.232H253.735V10.48C254.023 10.032 254.412 9.68533 254.903 9.44C255.404 9.19467 255.954 9.072 256.551 9.072ZM261.969 13.6C261.969 12.6933 262.151 11.904 262.513 11.232C262.876 10.5493 263.377 10.0213 264.017 9.648C264.668 9.27467 265.409 9.088 266.241 9.088C267.319 9.088 268.204 9.34933 268.897 9.872C269.601 10.3947 270.065 11.12 270.289 12.048H268.721C268.572 11.5147 268.279 11.0933 267.841 10.784C267.415 10.4747 266.881 10.32 266.241 10.32C265.409 10.32 264.737 10.608 264.225 11.184C263.713 11.7493 263.457 12.5547 263.457 13.6C263.457 14.656 263.713 15.472 264.225 16.048C264.737 16.624 265.409 16.912 266.241 16.912C266.881 16.912 267.415 16.7627 267.841 16.464C268.268 16.1653 268.561 15.7387 268.721 15.184H270.289C270.055 16.08 269.585 16.8 268.881 17.344C268.177 17.8773 267.297 18.144 266.241 18.144C265.409 18.144 264.668 17.9573 264.017 17.584C263.377 17.2107 262.876 16.6827 262.513 16C262.151 15.3173 261.969 14.5173 261.969 13.6ZM276.584 9.072C277.245 9.072 277.843 9.216 278.376 9.504C278.909 9.78133 279.325 10.2027 279.624 10.768C279.933 11.3333 280.088 12.0213 280.088 12.832V18H278.648V13.04C278.648 12.1653 278.429 11.4987 277.992 11.04C277.555 10.5707 276.957 10.336 276.2 10.336C275.432 10.336 274.819 10.576 274.36 11.056C273.912 11.536 273.688 12.2347 273.688 13.152V18H272.232V6.16H273.688V10.48C273.976 10.032 274.371 9.68533 274.872 9.44C275.384 9.19467 275.955 9.072 276.584 9.072ZM288.188 6.848V18H286.732V6.848H288.188ZM291.406 5.264L291.214 8.448H290.206L289.998 5.264H291.406ZM303.76 9.072C304.443 9.072 305.051 9.216 305.584 9.504C306.118 9.78133 306.539 10.2027 306.848 10.768C307.158 11.3333 307.312 12.0213 307.312 12.832V18H305.872V13.04C305.872 12.1653 305.654 11.4987 305.216 11.04C304.79 10.5707 304.208 10.336 303.472 10.336C302.715 10.336 302.112 10.5813 301.664 11.072C301.216 11.552 300.992 12.2507 300.992 13.168V18H299.552V13.04C299.552 12.1653 299.334 11.4987 298.896 11.04C298.47 10.5707 297.888 10.336 297.152 10.336C296.395 10.336 295.792 10.5813 295.344 11.072C294.896 11.552 294.672 12.2507 294.672 13.168V18H293.216V9.232H294.672V10.496C294.96 10.0373 295.344 9.68533 295.824 9.44C296.315 9.19467 296.854 9.072 297.44 9.072C298.176 9.072 298.827 9.23733 299.392 9.568C299.958 9.89867 300.379 10.384 300.656 11.024C300.902 10.4053 301.307 9.92533 301.872 9.584C302.438 9.24267 303.067 9.072 303.76 9.072ZM38.688 34.864C38.9867 34.3413 39.424 33.9147 40 33.584C40.576 33.2533 41.232 33.088 41.968 33.088C42.7573 33.088 43.4667 33.2747 44.096 33.648C44.7253 34.0213 45.2213 34.5493 45.584 35.232C45.9467 35.904 46.128 36.688 46.128 37.584C46.128 38.4693 45.9467 39.2587 45.584 39.952C45.2213 40.6453 44.72 41.184 44.08 41.568C43.4507 41.952 42.7467 42.144 41.968 42.144C41.2107 42.144 40.544 41.9787 39.968 41.648C39.4027 41.3173 38.976 40.896 38.688 40.384V42H37.232V30.16H38.688V34.864ZM44.64 37.584C44.64 36.9227 44.5067 36.3467 44.24 35.856C43.9733 35.3653 43.6107 34.992 43.152 34.736C42.704 34.48 42.208 34.352 41.664 34.352C41.1307 34.352 40.6347 34.4853 40.176 34.752C39.728 35.008 39.3653 35.3867 39.088 35.888C38.8213 36.3787 38.688 36.9493 38.688 37.6C38.688 38.2613 38.8213 38.8427 39.088 39.344C39.3653 39.8347 39.728 40.2133 40.176 40.48C40.6347 40.736 41.1307 40.864 41.664 40.864C42.208 40.864 42.704 40.736 43.152 40.48C43.6107 40.2133 43.9733 39.8347 44.24 39.344C44.5067 38.8427 44.64 38.256 44.64 37.584ZM47.5005 37.584C47.5005 36.688 47.6818 35.904 48.0445 35.232C48.4072 34.5493 48.9032 34.0213 49.5325 33.648C50.1725 33.2747 50.8818 33.088 51.6605 33.088C52.4285 33.088 53.0952 33.2533 53.6605 33.584C54.2258 33.9147 54.6472 34.3307 54.9245 34.832V33.232H56.3965V42H54.9245V40.368C54.6365 40.88 54.2045 41.3067 53.6285 41.648C53.0632 41.9787 52.4018 42.144 51.6445 42.144C50.8658 42.144 50.1618 41.952 49.5325 41.568C48.9032 41.184 48.4072 40.6453 48.0445 39.952C47.6818 39.2587 47.5005 38.4693 47.5005 37.584ZM54.9245 37.6C54.9245 36.9387 54.7912 36.3627 54.5245 35.872C54.2578 35.3813 53.8952 35.008 53.4365 34.752C52.9885 34.4853 52.4925 34.352 51.9485 34.352C51.4045 34.352 50.9085 34.48 50.4605 34.736C50.0125 34.992 49.6552 35.3653 49.3885 35.856C49.1218 36.3467 48.9885 36.9227 48.9885 37.584C48.9885 38.256 49.1218 38.8427 49.3885 39.344C49.6552 39.8347 50.0125 40.2133 50.4605 40.48C50.9085 40.736 51.4045 40.864 51.9485 40.864C52.4925 40.864 52.9885 40.736 53.4365 40.48C53.8952 40.2133 54.2578 39.8347 54.5245 39.344C54.7912 38.8427 54.9245 38.2613 54.9245 37.6ZM60.313 34.864C60.6117 34.3413 61.049 33.9147 61.625 33.584C62.201 33.2533 62.857 33.088 63.593 33.088C64.3823 33.088 65.0917 33.2747 65.721 33.648C66.3503 34.0213 66.8463 34.5493 67.209 35.232C67.5717 35.904 67.753 36.688 67.753 37.584C67.753 38.4693 67.5717 39.2587 67.209 39.952C66.8463 40.6453 66.345 41.184 65.705 41.568C65.0757 41.952 64.3717 42.144 63.593 42.144C62.8357 42.144 62.169 41.9787 61.593 41.648C61.0277 41.3173 60.601 40.896 60.313 40.384V42H58.857V30.16H60.313V34.864ZM66.265 37.584C66.265 36.9227 66.1317 36.3467 65.865 35.856C65.5983 35.3653 65.2357 34.992 64.777 34.736C64.329 34.48 63.833 34.352 63.289 34.352C62.7557 34.352 62.2597 34.4853 61.801 34.752C61.353 35.008 60.9903 35.3867 60.713 35.888C60.4463 36.3787 60.313 36.9493 60.313 37.6C60.313 38.2613 60.4463 38.8427 60.713 39.344C60.9903 39.8347 61.353 40.2133 61.801 40.48C62.2597 40.736 62.7557 40.864 63.289 40.864C63.833 40.864 64.329 40.736 64.777 40.48C65.2357 40.2133 65.5983 39.8347 65.865 39.344C66.1317 38.8427 66.265 38.256 66.265 37.584ZM77.2215 33.232L71.9415 46.128H70.4375L72.1655 41.904L68.6295 33.232H70.2455L72.9975 40.336L75.7175 33.232H77.2215ZM79.1491 42.096C78.8718 42.096 78.6371 42 78.4451 41.808C78.2531 41.616 78.1571 41.3813 78.1571 41.104C78.1571 40.8267 78.2531 40.592 78.4451 40.4C78.6371 40.208 78.8718 40.112 79.1491 40.112C79.4158 40.112 79.6398 40.208 79.8211 40.4C80.0131 40.592 80.1091 40.8267 80.1091 41.104C80.1091 41.3813 80.0131 41.616 79.8211 41.808C79.6398 42 79.4158 42.096 79.1491 42.096Z" fill="#57534E"/>
</svg>
